<?xml version="1.0" standalone="no"?>
<svg viewBox="0 0 200 200" xmlns="http://www.w3.org/2000/svg">
  <mask id="mask0" mask-type="alpha">
    <path fill="#000000" d="M57.1,-31.6C65.6,-18.3,58.2,5.5,46.1,28.2C33.9,50.8,17,72.1,-1.4,73C-19.8,73.8,-39.6,54,-49.9,32.5C-60.2,11,-61,-12.4,-51.1,-26.5C-41.2,-40.6,-20.6,-45.4,1.9,-46.5C24.3,-47.6,48.6,-44.8,57.1,-31.6Z" transform="translate(100 100)" />
  </mask>
  <g mask="url(mask0)">
    <path fill="#000000" d="M57.1,-31.6C65.6,-18.3,58.2,5.5,46.1,28.2C33.9,50.8,17,72.1,-1.4,73C-19.8,73.8,-39.6,54,-49.9,32.5C-60.2,11,-61,-12.4,-51.1,-26.5C-41.2,-40.6,-20.6,-45.4,1.9,-46.5C24.3,-47.6,48.6,-44.8,57.1,-31.6Z" transform="translate(100 100)" />
    <image xlink:href="" />
  </g>
  
</svg>
