<svg version="1.1" id="Layer_1" xmlns="http://www.w3.org/2000/svg" xmlns:xlink="http://www.w3.org/1999/xlink" x="0px" y="0px"
	 width="100%" viewBox="0 0 664 376" enable-background="new 0 0 664 376" xml:space="preserve">
<path fill="#010101" opacity="1.000000" stroke="none" 
	d="
M641.000000,1.000000 
	C648.998047,1.000000 656.996094,1.000000 664.995605,1.000000 
	C664.997070,126.300659 664.997070,251.601318 664.997070,376.950989 
	C443.753571,376.950989 222.507156,376.950989 1.130358,376.950989 
	C1.130358,251.784409 1.130358,126.568626 1.130358,1.000000 
	C111.021759,1.000000 221.043900,1.000000 331.533020,1.465354 
	C332.455750,11.720776 333.030640,21.507151 333.334381,31.301931 
	C333.648590,41.433128 333.747284,51.572029 333.844513,61.708477 
	C333.889740,66.422775 333.536957,71.144547 333.682251,75.853127 
	C333.807312,79.905045 331.017273,84.470932 327.557251,84.903145 
	C321.340424,85.679733 315.104980,86.306519 308.886993,87.074409 
	C307.860748,87.201134 306.883911,87.727623 305.884277,88.069366 
	C305.905212,88.590454 305.926178,89.111534 305.947144,89.632622 
	C308.077179,89.632622 310.209198,89.692184 312.336792,89.620255 
	C316.815918,89.468819 321.292053,89.117020 325.770660,89.094658 
	C329.945465,89.073814 332.652649,90.570244 330.612762,95.577560 
	C329.431427,95.617226 328.638428,95.555687 327.544067,95.374878 
	C325.542908,95.340233 323.843018,95.424858 321.680847,95.633018 
	C315.828552,95.812912 310.438568,95.869263 305.039124,95.662315 
	C305.008606,95.224236 304.987610,95.049446 304.894348,94.547836 
	C303.418182,91.362518 301.438446,91.782928 300.648712,94.210487 
	C299.999176,96.207214 300.158417,98.982689 301.081390,100.861816 
	C302.712402,104.182343 305.160553,107.109901 307.346893,110.144119 
	C308.006348,111.059280 308.805359,112.271103 309.754791,112.515907 
	C316.162598,114.168106 319.947510,118.316483 322.465271,124.276878 
	C323.263763,126.167221 325.470398,127.876755 327.440277,128.782074 
	C333.819000,131.713577 335.542694,141.650009 329.506317,146.746948 
	C330.753113,147.665253 332.171570,148.344818 333.079468,149.445511 
	C336.093384,153.099457 334.859802,160.111725 330.716431,161.847412 
	C309.258759,140.507599 288.049286,119.366333 267.019897,98.047409 
	C264.663391,95.658455 262.388519,94.856636 259.224457,94.941689 
	C251.398697,95.152054 243.566040,95.119217 235.736008,95.151215 
	C229.296402,95.177536 222.856598,95.156593 216.685547,95.156593 
	C216.685547,154.050491 216.685547,211.759094 216.685547,270.017212 
	C229.572662,270.017212 241.697433,269.771881 253.804123,270.132782 
	C258.953491,270.286316 260.229950,268.623840 260.201599,263.616852 
	C259.996185,227.298065 260.090942,190.977615 260.090759,154.657684 
	C260.090759,152.783768 260.090790,150.909851 260.090790,147.450775 
	C262.929810,149.647705 264.568420,150.648529 265.881073,151.972519 
	C280.240204,166.455521 294.583588,180.954590 308.857086,195.521973 
	C317.073822,203.907928 325.155121,212.426605 332.957214,220.933167 
	C331.592072,221.618790 330.567139,222.256760 329.542206,222.894730 
	C329.341736,223.340240 329.141266,223.785736 328.940765,224.231232 
	C334.765808,223.954086 335.303802,226.460007 333.600403,230.270416 
	C333.280243,230.986588 333.314728,231.902435 333.333435,232.722778 
	C333.571320,243.150681 333.872528,253.577271 334.076904,264.005768 
	C334.162842,268.389740 336.245087,269.747803 340.135773,267.742615 
	C341.117767,267.236511 342.022217,266.579834 342.962280,265.992340 
	C342.918732,266.432617 342.875153,266.872894 342.831573,267.313171 
	C345.243500,268.206116 347.676483,269.911255 350.063629,269.849304 
	C359.627838,269.601044 369.175171,268.753143 378.735260,268.250916 
	C380.856354,268.139465 383.003143,268.544952 385.139618,268.689789 
	C388.390686,268.910126 391.702972,269.605896 394.883087,269.221405 
	C402.622803,268.285675 410.377533,264.421143 417.824768,270.338776 
	C419.090424,271.392426 420.489594,272.913879 421.686951,272.768829 
	C426.470947,272.189301 431.192200,271.091736 436.321442,270.082397 
	C437.493530,270.045959 438.280823,270.113007 439.330994,270.344147 
	C440.389923,270.717651 441.186035,270.927063 442.110016,271.351074 
	C443.154022,271.714813 444.070160,271.864014 445.194153,271.867371 
	C445.655182,271.497223 445.908356,271.272858 446.461243,270.996765 
	C447.508484,270.630646 448.256012,270.316284 449.416687,269.995178 
	C458.652679,270.543701 467.326965,268.593323 476.332458,269.619995 
	C486.935120,270.828766 497.820282,269.713623 508.575989,269.380463 
	C518.320557,269.078583 528.055176,268.167114 537.795288,268.149841 
	C541.790466,268.142761 545.785034,270.516724 549.785950,270.535767 
	C566.760437,270.616669 583.737732,270.251862 600.712524,269.962952 
	C603.184875,269.920898 605.642212,269.306641 608.118835,269.139038 
	C611.216309,268.929443 614.334412,268.716858 617.429382,268.845917 
	C623.510559,269.099457 629.578003,269.788971 635.658752,269.908051 
	C639.632812,269.985870 640.858521,267.592072 640.717224,263.620117 
	C640.364075,253.693146 640.415466,243.750015 640.400146,233.813232 
	C640.381714,221.817841 642.779846,209.718353 638.762451,197.898819 
	C638.562988,197.311935 638.539124,196.489838 638.796326,195.950272 
	C641.465149,190.352997 642.481262,185.037659 636.943237,181.409286 
	C638.380859,178.616028 640.612366,176.272598 640.650635,173.893829 
	C640.988037,152.950745 640.974121,132.001358 640.968445,111.053864 
	C640.967163,106.241768 640.411621,101.429016 640.431458,96.617874 
	C640.500671,79.808510 640.746948,62.999966 640.855103,46.190655 
	C640.951965,31.127417 640.955383,16.063576 641.000000,1.000000 
z"/>
<path fill="#040404" opacity="1.000000" stroke="none" 
	d="
M331.001068,95.476364 
	C332.652649,90.570244 329.945465,89.073814 325.770660,89.094658 
	C321.292053,89.117020 316.815918,89.468819 312.336792,89.620255 
	C310.209198,89.692184 308.077179,89.632622 305.947144,89.632622 
	C305.926178,89.111534 305.905212,88.590454 305.884277,88.069366 
	C306.883911,87.727623 307.860748,87.201134 308.886993,87.074409 
	C315.104980,86.306519 321.340424,85.679733 327.557251,84.903145 
	C331.017273,84.470932 333.807312,79.905045 333.682251,75.853127 
	C333.536957,71.144547 333.889740,66.422775 333.844513,61.708477 
	C333.747284,51.572029 333.648590,41.433128 333.334381,31.301931 
	C333.030640,21.507151 332.455750,11.720776 332.000000,1.465354 
	C434.687561,1.000000 537.375122,1.000000 640.531372,1.000000 
	C640.955383,16.063576 640.951965,31.127417 640.855103,46.190655 
	C640.746948,62.999966 640.500671,79.808510 640.431458,96.617874 
	C640.411621,101.429016 640.967163,106.241768 640.968445,111.053864 
	C640.974121,132.001358 640.988037,152.950745 640.650635,173.893829 
	C640.612366,176.272598 638.380859,178.616028 636.943237,181.409286 
	C642.481262,185.037659 641.465149,190.352997 638.796326,195.950272 
	C638.539124,196.489838 638.562988,197.311935 638.762451,197.898819 
	C642.779846,209.718353 640.381714,221.817841 640.400146,233.813232 
	C640.415466,243.750015 640.364075,253.693146 640.717224,263.620117 
	C640.858521,267.592072 639.632812,269.985870 635.658752,269.908051 
	C629.578003,269.788971 623.510559,269.099457 617.429382,268.845917 
	C614.334412,268.716858 611.216309,268.929443 608.118835,269.139038 
	C605.642212,269.306641 603.184875,269.920898 600.712524,269.962952 
	C583.737732,270.251862 566.760437,270.616669 549.785950,270.535767 
	C545.785034,270.516724 541.790466,268.142761 537.795288,268.149841 
	C528.055176,268.167114 518.320557,269.078583 508.575989,269.380463 
	C497.820282,269.713623 486.935120,270.828766 476.332458,269.619995 
	C467.326965,268.593323 458.652679,270.543701 449.261292,269.771240 
	C448.182068,269.052032 447.671448,268.550018 447.224731,267.793060 
	C446.939728,266.688446 446.590820,265.838745 446.143127,264.613678 
	C446.095764,262.220245 446.147125,260.202240 446.493225,257.855164 
	C447.127563,250.161118 447.518127,242.797592 447.733337,235.428925 
	C447.756653,234.631027 446.765015,233.803497 446.161133,232.541306 
	C446.135406,229.049698 446.192749,226.006500 446.404144,222.586014 
	C446.716370,219.894165 447.007385,217.579865 447.012299,215.264984 
	C447.068329,188.800781 447.080841,162.336472 447.260498,135.560547 
	C447.310516,133.216537 447.204987,131.184158 446.888733,129.105713 
	C446.678009,129.059662 446.251221,128.996490 446.152618,128.537231 
	C446.113190,117.704224 446.172333,107.330482 446.567993,96.886505 
	C447.600555,95.214691 448.296631,93.613098 448.909668,91.662041 
	C445.537476,88.068588 441.358032,89.007492 436.590668,93.977257 
	C435.128265,93.985977 434.064484,93.989250 432.799133,93.697502 
	C429.895050,91.454720 427.324188,91.160713 425.003723,94.250107 
	C425.004120,94.493233 425.005554,94.979492 424.565125,95.049271 
	C421.750824,95.057770 419.376923,94.996483 416.997437,94.571564 
	C416.797913,92.883698 416.603973,91.559456 416.452179,90.523041 
	C413.965240,91.600250 412.109833,92.989319 410.154327,93.148438 
	C402.178131,93.797455 399.285126,100.567497 395.343811,105.622192 
	C391.728394,110.258972 387.300781,114.789474 386.757599,121.286919 
	C386.708710,121.872231 385.788208,122.384674 384.664154,123.575294 
	C384.778015,119.064354 385.998901,114.837570 380.653687,113.236671 
	C380.200256,114.511070 379.811890,115.602608 379.925812,115.282394 
	C375.566925,116.350586 372.402924,117.125961 369.151001,117.875671 
	C369.063049,117.850006 369.110443,117.673027 369.063599,117.454483 
	C369.016724,117.235931 368.875427,116.811371 369.092804,116.609741 
	C370.712128,109.900215 366.272217,105.835228 362.890076,101.410545 
	C360.435272,98.199013 357.350433,96.078499 353.001709,97.999695 
	C353.000000,98.000000 353.000000,97.997032 352.927582,97.686371 
	C352.560669,96.577278 352.266174,95.778831 351.835419,94.708405 
	C350.786316,93.633469 349.873444,92.830505 349.214783,91.862854 
	C350.242889,91.207649 351.016785,90.717117 352.833069,89.565849 
	C349.535919,89.453583 346.610931,87.102135 346.985382,92.321625 
	C346.337524,93.355766 345.737030,94.090424 345.009155,94.505432 
	C341.656067,89.819519 339.765900,90.125710 336.565430,95.567001 
	C334.431458,95.604706 332.716248,95.540535 331.001068,95.476364 
M447.847290,85.116669 
	C446.965607,85.302910 446.083893,85.489143 445.202209,85.675385 
	C445.393311,86.108727 445.584442,86.542076 445.775574,86.975418 
	C446.567535,86.467758 447.359467,85.960106 447.847290,85.116669 
M447.965515,81.869537 
	C447.721252,81.787910 447.476990,81.706291 447.232758,81.624664 
	C447.222107,81.869347 447.211456,82.114021 447.200775,82.358696 
	C447.451050,82.291359 447.701324,82.224022 447.965515,81.869537 
z"/>
<path fill="#F60F0F" opacity="1.000000" stroke="none" 
	d="
M333.297394,220.885544 
	C325.155121,212.426605 317.073822,203.907928 308.857086,195.521973 
	C294.583588,180.954590 280.240204,166.455521 265.881073,151.972519 
	C264.568420,150.648529 262.929810,149.647705 260.090790,147.450775 
	C260.090790,150.909851 260.090759,152.783768 260.090759,154.657684 
	C260.090942,190.977615 259.996185,227.298065 260.201599,263.616852 
	C260.229950,268.623840 258.953491,270.286316 253.804123,270.132782 
	C241.697433,269.771881 229.572662,270.017212 216.685547,270.017212 
	C216.685547,211.759094 216.685547,154.050491 216.685547,95.156593 
	C222.856598,95.156593 229.296402,95.177536 235.736008,95.151215 
	C243.566040,95.119217 251.398697,95.152054 259.224457,94.941689 
	C262.388519,94.856636 264.663391,95.658455 267.019897,98.047409 
	C288.049286,119.366333 309.258759,140.507599 330.838318,162.158905 
	C342.045776,173.423584 352.737457,184.325760 363.673584,194.976913 
	C366.772614,197.995148 366.315094,200.238861 363.534149,202.793503 
	C357.366852,208.458969 351.129425,214.050278 345.048615,219.807022 
	C339.221008,225.324020 339.292053,225.399063 333.297394,220.885544 
z"/>
<path fill="#F30F0F" opacity="1.000000" stroke="none" 
	d="
M446.250061,222.963303 
	C446.192749,226.006500 446.135406,229.049698 446.061646,233.001022 
	C446.096313,242.000839 446.147400,250.092514 446.198486,258.184204 
	C446.147125,260.202240 446.095764,262.220245 446.033142,265.016052 
	C446.170319,271.165955 441.610291,269.073486 439.068146,270.180054 
	C438.280823,270.113007 437.493530,270.045959 435.947266,269.933044 
	C429.478271,269.545441 423.768219,269.203705 418.103180,268.403259 
	C418.357025,228.813522 418.571381,189.682480 418.739014,150.551239 
	C418.742767,149.678085 418.215271,148.802658 417.583191,146.826508 
	C411.604523,152.675583 405.795410,157.632721 400.865967,163.348541 
	C393.124298,172.325226 380.108429,174.100891 372.768677,166.671997 
	C358.967987,152.703720 345.126953,138.774979 331.244568,124.887863 
	C322.559814,116.200111 313.768860,107.618477 304.994934,98.607185 
	C304.992371,97.458633 305.020477,96.692123 305.048584,95.925613 
	C310.438568,95.869263 315.828552,95.812912 322.072083,95.767647 
	C324.565521,95.683876 326.205475,95.589012 327.845398,95.494156 
	C328.638428,95.555687 329.431427,95.617226 330.612762,95.577560 
	C332.716248,95.540535 334.431458,95.604706 336.993347,95.702644 
	C340.226410,95.675011 342.612823,95.613617 345.291626,95.755402 
	C348.096375,97.855537 350.608704,99.752487 353.099304,101.745087 
	C353.077515,101.840729 353.263184,101.904106 353.358276,102.218826 
	C356.316071,105.178749 359.178772,107.823936 362.200439,110.758545 
	C362.667114,111.360710 362.974854,111.673470 363.337555,112.269196 
	C363.904572,112.786964 364.416656,113.021767 364.909607,113.191811 
	C364.890533,113.127052 364.761230,113.165901 364.851196,113.455368 
	C365.653503,114.403450 366.365845,115.062057 367.250244,116.002289 
	C367.805725,116.485916 368.189087,116.687912 368.579498,117.066254 
	C368.678070,117.487198 368.852692,117.630676 369.110443,117.673027 
	C369.110443,117.673027 369.063049,117.850006 369.249481,118.191376 
	C373.291046,122.018547 377.146149,125.504349 381.001068,128.996521 
	C381.000854,129.002869 381.014557,128.995361 381.251465,129.225739 
	C382.868134,128.676453 384.747131,128.236343 385.546021,127.061668 
	C390.478668,119.808723 395.621002,112.637093 399.805756,104.954781 
	C403.688660,97.826569 408.495087,93.531143 417.003021,94.935188 
	C419.376923,94.996483 421.750824,95.057770 424.954529,95.161774 
	C430.868103,95.171135 435.951874,95.137779 441.391113,95.251602 
	C442.763733,95.430832 443.780823,95.462883 444.901123,95.737984 
	C445.413361,96.306274 445.822418,96.631508 446.231506,96.956741 
	C446.172333,107.330482 446.113190,117.704224 446.053467,128.996628 
	C446.032867,145.675812 445.971802,161.436417 446.004517,177.196823 
	C446.036163,192.452423 446.164307,207.707825 446.250061,222.963303 
z"/>
<path fill="#080403" opacity="1.000000" stroke="none" 
	d="
M305.025574,98.989227 
	C313.768860,107.618477 322.559814,116.200111 331.244568,124.887863 
	C345.126953,138.774979 358.967987,152.703720 372.768677,166.671997 
	C380.108429,174.100891 393.124298,172.325226 400.865967,163.348541 
	C405.795410,157.632721 411.604523,152.675583 417.583191,146.826508 
	C418.215271,148.802658 418.742767,149.678085 418.739014,150.551239 
	C418.571381,189.682480 418.357025,228.813522 418.053986,268.697754 
	C417.928345,269.647491 417.896973,269.844055 417.865570,270.040649 
	C410.377533,264.421143 402.622803,268.285675 394.883087,269.221405 
	C391.702972,269.605896 388.390686,268.910126 385.139618,268.689789 
	C383.003143,268.544952 380.856354,268.139465 378.735260,268.250916 
	C369.175171,268.753143 359.627838,269.601044 350.063629,269.849304 
	C347.676483,269.911255 345.243500,268.206116 342.831573,267.313171 
	C342.875153,266.872894 342.918732,266.432617 342.962280,265.992340 
	C342.022217,266.579834 341.117767,267.236511 340.135773,267.742615 
	C336.245087,269.747803 334.162842,268.389740 334.076904,264.005768 
	C333.872528,253.577271 333.571320,243.150681 333.333435,232.722778 
	C333.314728,231.902435 333.280243,230.986588 333.600403,230.270416 
	C335.303802,226.460007 334.765808,223.954086 328.940765,224.231232 
	C329.141266,223.785736 329.341736,223.340240 329.542206,222.894730 
	C330.567139,222.256760 331.592072,221.618790 332.957214,220.933167 
	C339.292053,225.399063 339.221008,225.324020 345.048615,219.807022 
	C351.129425,214.050278 357.366852,208.458969 363.534149,202.793503 
	C366.315094,200.238861 366.772614,197.995148 363.673584,194.976913 
	C352.737457,184.325760 342.045776,173.423584 331.139526,162.305115 
	C334.859802,160.111725 336.093384,153.099457 333.079468,149.445511 
	C332.171570,148.344818 330.753113,147.665253 329.506317,146.746948 
	C335.542694,141.650009 333.819000,131.713577 327.440277,128.782074 
	C325.470398,127.876755 323.263763,126.167221 322.465271,124.276878 
	C319.947510,118.316483 316.162598,114.168106 309.754791,112.515907 
	C308.805359,112.271103 308.006348,111.059280 307.346893,110.144119 
	C305.160553,107.109901 302.712402,104.182343 301.081390,100.861816 
	C300.158417,98.982689 299.999176,96.207214 300.648712,94.210487 
	C301.438446,91.782928 303.418182,91.362518 304.591248,94.605019 
	C303.619690,95.624039 302.879059,96.259048 302.138428,96.894073 
	C303.100800,97.592461 304.063202,98.290848 305.025574,98.989227 
M394.573120,248.390656 
	C400.290558,250.039932 398.934143,243.232605 402.242188,241.656296 
	C406.021973,245.011871 401.679840,251.381729 407.287231,253.972687 
	C405.200317,247.144028 405.604797,241.006805 411.940857,236.017960 
	C406.975769,236.692703 403.097687,237.219711 398.389160,237.859589 
	C397.531067,241.568390 394.254608,242.417130 389.903717,241.495132 
	C388.732758,241.246979 387.120880,241.650467 386.134583,242.350769 
	C385.093018,243.090363 384.094421,244.500580 383.987610,245.699020 
	C383.930939,246.334198 385.725311,247.572159 386.827606,247.781265 
	C389.087280,248.209961 391.443695,248.128571 394.573120,248.390656 
z"/>
<path fill="#120704" opacity="1.000000" stroke="none" 
	d="
M417.824768,270.338776 
	C417.896973,269.844055 417.928345,269.647491 418.008942,269.156464 
	C423.768219,269.203705 429.478271,269.545441 435.562500,270.036530 
	C431.192200,271.091736 426.470947,272.189301 421.686951,272.768829 
	C420.489594,272.913879 419.090424,271.392426 417.824768,270.338776 
z"/>
<path fill="#120704" opacity="1.000000" stroke="none" 
	d="
M439.330994,270.344147 
	C441.610291,269.073486 446.170319,271.165955 446.131897,265.391479 
	C446.590820,265.838745 446.939728,266.688446 447.126343,268.093018 
	C446.696533,269.448090 446.429016,270.248291 446.161530,271.048492 
	C445.908356,271.272858 445.655182,271.497223 444.922089,271.701782 
	C443.622162,271.500183 442.802124,271.318329 441.982117,271.136505 
	C441.186035,270.927063 440.389923,270.717651 439.330994,270.344147 
z"/>
<path fill="#120704" opacity="1.000000" stroke="none" 
	d="
M304.994934,98.607185 
	C304.063202,98.290848 303.100800,97.592461 302.138428,96.894073 
	C302.879059,96.259048 303.619690,95.624039 304.663452,94.931847 
	C304.987610,95.049446 305.008606,95.224236 305.039124,95.662315 
	C305.020477,96.692123 304.992371,97.458633 304.994934,98.607185 
z"/>
<path fill="#120704" opacity="1.000000" stroke="none" 
	d="
M327.544067,95.374878 
	C326.205475,95.589012 324.565521,95.683876 322.534363,95.644112 
	C323.843018,95.424858 325.542908,95.340233 327.544067,95.374878 
z"/>
<path fill="#080403" opacity="1.000000" stroke="none" 
	d="
M446.461243,270.996765 
	C446.429016,270.248291 446.696533,269.448090 447.062408,268.347961 
	C447.671448,268.550018 448.182068,269.052032 448.848114,269.778015 
	C448.256012,270.316284 447.508484,270.630646 446.461243,270.996765 
z"/>
<path fill="#080403" opacity="1.000000" stroke="none" 
	d="
M442.110016,271.351074 
	C442.802124,271.318329 443.622162,271.500183 444.714233,271.847626 
	C444.070160,271.864014 443.154022,271.714813 442.110016,271.351074 
z"/>
<path fill="#120704" opacity="1.000000" stroke="none" 
	d="
M381.001282,128.990158 
	C377.146149,125.504349 373.291046,122.018547 369.337402,118.217041 
	C372.402924,117.125961 375.566925,116.350586 379.925812,115.282394 
	C379.811890,115.602608 380.200256,114.511070 380.653687,113.236671 
	C385.998901,114.837570 384.778015,119.064354 384.664154,123.575294 
	C385.788208,122.384674 386.708710,121.872231 386.757599,121.286919 
	C387.300781,114.789474 391.728394,110.258972 395.343811,105.622192 
	C399.285126,100.567497 402.178131,93.797455 410.154327,93.148438 
	C412.109833,92.989319 413.965240,91.600250 416.452179,90.523041 
	C416.603973,91.559456 416.797913,92.883698 416.997437,94.571564 
	C408.495087,93.531143 403.688660,97.826569 399.805756,104.954781 
	C395.621002,112.637093 390.478668,119.808723 385.546021,127.061668 
	C384.747131,128.236343 382.868134,128.676453 381.414246,129.147232 
	C381.475189,128.563354 381.610260,128.288345 381.745331,128.013336 
	C381.497314,128.338943 381.249298,128.664551 381.001282,128.990158 
z"/>
<path fill="#080403" opacity="1.000000" stroke="none" 
	d="
M368.572449,116.889908 
	C368.189087,116.687912 367.805725,116.485916 367.180603,115.698975 
	C366.212982,114.464653 365.487091,113.815277 364.761230,113.165901 
	C364.761230,113.165901 364.890533,113.127052 364.743469,112.985275 
	C364.158447,112.557739 363.720520,112.271980 363.282593,111.986221 
	C362.974854,111.673470 362.667114,111.360710 362.241425,110.440674 
	C362.454498,103.835152 359.888062,101.538383 353.263184,101.904106 
	C353.263184,101.904106 353.077515,101.840729 353.088623,101.380524 
	C353.067657,99.946678 353.035522,98.973030 353.003418,97.999390 
	C357.350433,96.078499 360.435272,98.199013 362.890076,101.410545 
	C366.272217,105.835228 370.712128,109.900215 369.016113,116.626923 
	C368.722076,116.845749 368.572449,116.889915 368.572449,116.889908 
z"/>
<path fill="#120704" opacity="1.000000" stroke="none" 
	d="
M446.404175,222.586014 
	C446.164307,207.707825 446.036163,192.452423 446.004517,177.196823 
	C445.971802,161.436417 446.032867,145.675812 446.152100,129.455887 
	C446.251221,128.996490 446.678009,129.059662 446.877319,129.521545 
	C447.086060,131.946350 447.095520,133.909271 447.104950,135.872192 
	C447.080841,162.336472 447.068329,188.800781 447.012299,215.264984 
	C447.007385,217.579865 446.716370,219.894165 446.404175,222.586014 
z"/>
<path fill="#120704" opacity="1.000000" stroke="none" 
	d="
M446.493225,257.855164 
	C446.147400,250.092514 446.096313,242.000839 446.144714,233.449432 
	C446.765015,233.803497 447.756653,234.631027 447.733337,235.428925 
	C447.518127,242.797592 447.127563,250.161118 446.493225,257.855164 
z"/>
<path fill="#080403" opacity="1.000000" stroke="none" 
	d="
M444.797913,95.494934 
	C443.780823,95.462883 442.763733,95.430832 441.093750,95.059525 
	C439.290314,94.470779 438.139801,94.221298 436.989288,93.971817 
	C441.358032,89.007492 445.537476,88.068588 448.563629,91.756271 
	C447.133057,93.298302 445.965485,94.396622 444.797913,95.494934 
z"/>
<path fill="#120704" opacity="1.000000" stroke="none" 
	d="
M353.001709,97.999695 
	C353.035522,98.973030 353.067657,99.946678 353.110413,101.284882 
	C350.608704,99.752487 348.096375,97.855537 345.317017,95.571938 
	C345.049988,95.185287 345.136536,94.825089 345.136536,94.825089 
	C345.737030,94.090424 346.337524,93.355766 347.306580,92.320862 
	C348.103607,92.022911 348.532104,92.025230 348.960602,92.027542 
	C349.873444,92.830505 350.786316,93.633469 351.615784,94.833618 
	C352.021576,96.152885 352.510773,97.074959 353.000000,97.997040 
	C353.000000,97.997032 353.000000,98.000000 353.001709,97.999695 
z"/>
<path fill="#080403" opacity="1.000000" stroke="none" 
	d="
M345.009155,94.505432 
	C345.136536,94.825089 345.049988,95.185287 345.024597,95.368759 
	C342.612823,95.613617 340.226410,95.675011 337.412109,95.600769 
	C339.765900,90.125710 341.656067,89.819519 345.009155,94.505432 
z"/>
<path fill="#120704" opacity="1.000000" stroke="none" 
	d="
M436.590668,93.977257 
	C438.139801,94.221298 439.290314,94.470779 440.738220,94.912338 
	C435.951874,95.137779 430.868103,95.171135 425.394958,95.091995 
	C425.005554,94.979492 425.004120,94.493233 425.401367,94.250031 
	C428.199341,94.002060 430.600006,93.997292 433.000702,93.992523 
	C434.064484,93.989250 435.128265,93.985977 436.590668,93.977257 
z"/>
<path fill="#120704" opacity="1.000000" stroke="none" 
	d="
M444.901123,95.737991 
	C445.965485,94.396622 447.133057,93.298302 448.646667,92.105743 
	C448.296631,93.613098 447.600555,95.214691 446.567993,96.886505 
	C445.822418,96.631508 445.413361,96.306274 444.901123,95.737991 
z"/>
<path fill="#080403" opacity="1.000000" stroke="none" 
	d="
M432.799133,93.697502 
	C430.600006,93.997292 428.199341,94.002060 425.400970,94.006897 
	C427.324188,91.160713 429.895050,91.454720 432.799133,93.697502 
z"/>
<path fill="#080403" opacity="1.000000" stroke="none" 
	d="
M349.214783,91.862854 
	C348.532104,92.025230 348.103607,92.022911 347.353912,92.021362 
	C346.610931,87.102135 349.535919,89.453583 352.833069,89.565849 
	C351.016785,90.717117 350.242889,91.207649 349.214783,91.862854 
z"/>
<path fill="#080403" opacity="1.000000" stroke="none" 
	d="
M447.999359,85.284561 
	C447.359467,85.960106 446.567535,86.467758 445.775574,86.975418 
	C445.584442,86.542076 445.393311,86.108727 445.202209,85.675385 
	C446.083893,85.489143 446.965607,85.302910 447.999359,85.284561 
z"/>
<path fill="#010A03" opacity="1.000000" stroke="none" 
	d="
M447.260498,135.560547 
	C447.095520,133.909271 447.086060,131.946350 447.088043,129.567596 
	C447.204987,131.184158 447.310516,133.216537 447.260498,135.560547 
z"/>
<path fill="#080403" opacity="1.000000" stroke="none" 
	d="
M352.927582,97.686378 
	C352.510773,97.074959 352.021576,96.152885 351.752014,95.105598 
	C352.266174,95.778831 352.560669,96.577278 352.927582,97.686378 
z"/>
<path fill="#080403" opacity="1.000000" stroke="none" 
	d="
M447.958557,82.013107 
	C447.701324,82.224022 447.451050,82.291359 447.200806,82.358704 
	C447.211456,82.114021 447.222107,81.869347 447.232727,81.624664 
	C447.476990,81.706291 447.721252,81.787910 447.958557,82.013107 
z"/>
<path fill="#120704" opacity="1.000000" stroke="none" 
	d="
M368.579498,117.066254 
	C368.572449,116.889915 368.722076,116.845749 368.798767,116.828560 
	C368.875427,116.811371 369.016724,117.235931 369.063599,117.454483 
	C368.852692,117.630676 368.678070,117.487198 368.579498,117.066254 
z"/>
<path fill="#120704" opacity="1.000000" stroke="none" 
	d="
M353.358276,102.218826 
	C359.888062,101.538383 362.454498,103.835152 362.082489,110.151268 
	C359.178772,107.823936 356.316071,105.178749 353.358276,102.218826 
z"/>
<path fill="#120704" opacity="1.000000" stroke="none" 
	d="
M364.851196,113.455368 
	C365.487091,113.815277 366.212982,114.464653 367.008484,115.417343 
	C366.365845,115.062057 365.653503,114.403450 364.851196,113.455368 
z"/>
<path fill="#120704" opacity="1.000000" stroke="none" 
	d="
M363.337555,112.269196 
	C363.720520,112.271980 364.158447,112.557739 364.762543,113.050034 
	C364.416656,113.021767 363.904572,112.786964 363.337555,112.269196 
z"/>
<path fill="#020202" opacity="1.000000" stroke="none" 
	d="
M394.166687,248.323914 
	C391.443695,248.128571 389.087280,248.209961 386.827606,247.781265 
	C385.725311,247.572159 383.930939,246.334198 383.987610,245.699020 
	C384.094421,244.500580 385.093018,243.090363 386.134583,242.350769 
	C387.120880,241.650467 388.732758,241.246979 389.903717,241.495132 
	C394.254608,242.417130 397.531067,241.568390 398.389160,237.859589 
	C403.097687,237.219711 406.975769,236.692703 411.940857,236.017960 
	C405.604797,241.006805 405.200317,247.144028 407.287231,253.972687 
	C401.679840,251.381729 406.021973,245.011871 402.242188,241.656296 
	C398.934143,243.232605 400.290558,250.039932 394.166687,248.323914 
z"/>
<path fill="#040404" opacity="1.000000" stroke="none" 
	d="
M381.001068,128.996521 
	C381.249298,128.664551 381.497314,128.338943 381.745331,128.013336 
	C381.610260,128.288345 381.475189,128.563354 381.177338,128.916855 
	C381.014557,128.995361 381.000854,129.002869 381.001068,128.996521 
z"/>
</svg>